{
  "accessors": [
    {
      "bufferView": 2,
      "componentType": 5126,
      "count": 3388,
      "max": [
        24.519624710083008,
        31.59874153137207,
        124.71688842773438
      ],
      "min": [
        -27.914714813232422,
        -31.71142578125,
        -0.0011350000277161598
      ],
      "type": "VEC3"
    },
    {
      "bufferView": 2,
      "byteOffset": 40656,
      "componentType": 5126,
      "count": 3388,
      "max": [
        0.9996681809425354,
        0.999941349029541,
        0.9966094493865967
      ],
      "min": [
        -0.9999974966049194,
        -0.9999167919158936,
        -1.0
      ],
      "type": "VEC3"
    },
    {
      "bufferView": 3,
      "componentType": 5126,
      "count": 3388,
      "max": [
        0.9989596009254456,
        0.998421847820282,
        0.9999930262565613,
        1.0
      ],
      "min": [
        -0.9994559288024902,
        -0.9817885756492615,
        -0.999824583530426,
        1.0
      ],
      "type": "VEC4"
    },
    {
      "bufferView": 1,
      "componentType": 5126,
      "count": 3388,
      "max": [
        0.9997429847717285,
        0.9929100275039673
      ],
      "min": [
        0.0002570000069681555,
        0.0002570000069681555
      ],
      "type": "VEC2"
    },
    {
      "bufferView": 0,
      "componentType": 5125,
      "count": 18528,
      "type": "SCALAR"
    }
  ],
  "asset": {
    "extras": {
      "author": "RomarovArt (https://sketchfab.com/RomarArt)",
      "license": "CC-BY-4.0 (http://creativecommons.org/licenses/by/4.0/)",
      "source": "https://sketchfab.com/3d-models/socrates-obj-e2335a0d0a754ffabc031c02326913a2",
      "title": "Socrates (.obj)"
    },
    "generator": "Sketchfab-12.66.0",
    "version": "2.0"
  },
  "bufferViews": [
    {
      "buffer": 0,
      "byteLength": 74112,
      "name": "floatBufferViews",
      "target": 34963
    },
    {
      "buffer": 0,
      "byteLength": 27104,
      "byteOffset": 74112,
      "byteStride": 8,
      "name": "floatBufferViews",
      "target": 34962
    },
    {
      "buffer": 0,
      "byteLength": 81312,
      "byteOffset": 101216,
      "byteStride": 12,
      "name": "floatBufferViews",
      "target": 34962
    },
    {
      "buffer": 0,
      "byteLength": 54208,
      "byteOffset": 182528,
      "byteStride": 16,
      "name": "floatBufferViews",
      "target": 34962
    }
  ],
  "buffers": [
    {
      "byteLength": 236736,
      "uri": "scene.bin"
    }
  ],
  "images": [
    {
      "uri": "textures/Socrates_baseColor.png"
    },
    {
      "uri": "textures/Socrates_metallicRoughness.png"
    },
    {
      "uri": "textures/Socrates_normal.png"
    }
  ],
  "materials": [
    {
      "doubleSided": true,
      "name": "Socrates",
      "normalTexture": {
        "index": 2
      },
      "occlusionTexture": {
        "index": 1
      },
      "pbrMetallicRoughness": {
        "baseColorTexture": {
          "index": 0
        },
        "metallicFactor": 0.0,
        "metallicRoughnessTexture": {
          "index": 1
        }
      }
    }
  ],
  "meshes": [
    {
      "name": "Object_0",
      "primitives": [
        {
          "attributes": {
            "NORMAL": 1,
            "POSITION": 0,
            "TANGENT": 2,
            "TEXCOORD_0": 3
          },
          "indices": 4,
          "material": 0,
          "mode": 4
        }
      ]
    }
  ],
  "nodes": [
    {
      "children": [
        1
      ],
      "matrix": [
        1.0,
        -1.6081226229577292e-16,
        -5.356124287284811e-32,
        0.0,
        8.006836424271825e-33,
        3.828568672208042e-16,
        -1.0,
        0.0,
        1.6081226229577292e-16,
        1.0,
        3.828568672208042e-16,
        0.0,
        -9.992007221626409e-15,
        2.2263750157116446e-30,
        -1.0026701691145945e-14,
        1.0
      ],
      "name": "Sketchfab_model"
    },
    {
      "children": [
        2
      ],
      "name": "88c7a536bfb549ca8cc4cfd5ba41cb73.obj.cleaner.materialmerger.gles"
    },
    {
      "mesh": 0,
      "name": "Object_2"
    }
  ],
  "samplers": [
    {
      "magFilter": 9729,
      "minFilter": 9987,
      "wrapS": 10497,
      "wrapT": 10497
    }
  ],
  "scene": 0,
  "scenes": [
    {
      "name": "Sketchfab_Scene",
      "nodes": [
        0
      ]
    }
  ],
  "textures": [
    {
      "sampler": 0,
      "source": 0
    },
    {
      "sampler": 0,
      "source": 1
    },
    {
      "sampler": 0,
      "source": 2
    }
  ]
}
